HIERARCHY
ROOT Hips
{
	OFFSET 0.000000 0.000000 0.000000 
	CHANNELS 6 Xposition Yposition Zposition Zrotation Xrotation Yrotation
	JOINT Spine
	{
		OFFSET -0.000000 8.285670 0.000000 
		CHANNELS 3 Zrotation Xrotation Yrotation
		JOINT Spine1
		{
			OFFSET 0.000611 19.343710 -0.000411 
			CHANNELS 3 Zrotation Xrotation Yrotation
			JOINT Neck
			{
				OFFSET -0.000000 22.301800 0.000000 
				CHANNELS 3 Zrotation Xrotation Yrotation
				JOINT Head
				{
					OFFSET -0.000212 13.431406 1.733011 
					CHANNELS 3 Zrotation Xrotation Yrotation
					End Site
					{
						OFFSET -0.000000 20.208887 0.000000 
					}
				}
			}
			JOINT LeftShoulder
			{
				OFFSET 3.887530 15.503099 -0.416373 
				CHANNELS 3 Zrotation Xrotation Yrotation
				JOINT LeftArm
				{
					OFFSET 20.767099 0.000000 0.000000 
					CHANNELS 3 Zrotation Xrotation Yrotation
					JOINT LeftForeArm
					{
						OFFSET 26.608500 0.000000 0.000000 
						CHANNELS 3 Zrotation Xrotation Yrotation
						JOINT LeftHand
						{
							OFFSET 21.738852 -0.000256 0.000002 
							CHANNELS 3 Zrotation Xrotation Yrotation
							End Site
							{
								OFFSET 15.156667 0.000000 0.000000 
							}
						}
					}
				}
			}
			JOINT RightShoulder
			{
				OFFSET -4.190880 15.503099 -0.416373 
				CHANNELS 3 Zrotation Xrotation Yrotation
				JOINT RightArm
				{
					OFFSET -20.767099 0.000000 0.000000 
					CHANNELS 3 Zrotation Xrotation Yrotation
					JOINT RightForeArm
					{
						OFFSET -26.608500 0.000000 0.000000 
						CHANNELS 3 Zrotation Xrotation Yrotation
						JOINT RightHand
						{
							OFFSET -23.120808 -0.000513 -0.000119 
							CHANNELS 3 Zrotation Xrotation Yrotation
							End Site
							{
								OFFSET -15.156667 0.000000 0.000000 
							}
						}
					}
				}
			}
		}
	}
	JOINT LeftUpLeg
	{
		OFFSET 10.104500 0.000000 0.000000 
		CHANNELS 3 Zrotation Xrotation Yrotation
		JOINT LeftLeg
		{
			OFFSET -0.000000 -50.743301 0.000000 
			CHANNELS 3 Zrotation Xrotation Yrotation
			JOINT LeftFoot
			{
				OFFSET -0.000000 -35.579197 0.000000 
				CHANNELS 3 Zrotation Xrotation Yrotation
				JOINT LeftToeBase
				{
					OFFSET -0.000000 -6.567910 15.156700 
					CHANNELS 3 Zrotation Xrotation Yrotation
					End Site
					{
						OFFSET -0.000000 0.000000 4.041778 
					}
				}
			}
		}
	}
	JOINT RightUpLeg
	{
		OFFSET -10.104500 0.000000 0.000000 
		CHANNELS 3 Zrotation Xrotation Yrotation
		JOINT RightLeg
		{
			OFFSET -0.000000 -50.743301 0.000000 
			CHANNELS 3 Zrotation Xrotation Yrotation
			JOINT RightFoot
			{
				OFFSET -0.006622 -35.254826 -0.036579 
				CHANNELS 3 Zrotation Xrotation Yrotation
				JOINT RightToeBase
				{
					OFFSET -0.000000 -6.567910 15.156700 
					CHANNELS 3 Zrotation Xrotation Yrotation
					End Site
					{
						OFFSET -0.000000 0.000000 4.041778 
					}
				}
			}
		}
	}
}
MOTION
Frames: 9
Frame Time: 0.010000
-1.236842 89.270050 37.707741 -0.703301 16.902525 0.002933 -1.919651 -0.403749 -0.941379 9.977245 4.353669 -0.691717 5.879754 -7.361660 -1.150701 -16.980509 -6.157295 0.503412 -4.113375 4.030851 4.417997 -63.382412 39.032757 -10.406448 -0.079260 0.115376 -39.724068 -25.052076 -2.858480 13.212991 -10.907627 2.454440 -3.733372 70.515549 36.143173 17.825447 -10.750400 -9.107606 43.161007 9.688358 -5.107272 -2.789752 7.881378 -42.347240 -0.443976 -6.668153 61.998608 12.662684 -25.414909 -31.853895 0.524091 0.000000 0.000000 0.000000 -5.955468 -29.202248 -11.833821 0.823739 41.235012 -10.275932 16.138563 -42.149742 14.985547 0.000000 0.000000 0.000000 
-1.151916 89.486794 38.571075 -0.699365 16.787371 0.159898 -1.908747 -0.480209 -0.615741 9.747167 4.426717 -0.580382 5.804436 -7.339473 -1.380787 -16.778416 -6.062721 0.259828 -3.703207 4.898349 4.787896 -63.079292 40.015682 -12.431033 -0.068641 -0.072877 -35.336330 -25.389839 -2.548750 10.872552 -10.906767 2.497455 -3.787637 70.457565 36.313438 17.910582 -10.818824 -9.340857 43.682541 9.714709 -5.269939 -2.919878 7.709798 -42.501083 -0.612367 -6.048705 60.257313 11.914161 -28.188381 -31.704205 0.045379 0.000000 0.000000 0.000000 -5.961321 -28.026726 -11.803816 1.011869 39.369148 -10.667910 16.519825 -41.962273 15.440099 0.000000 0.000000 0.000000 
-1.055927 89.690308 39.446102 -0.696866 16.661615 0.316346 -1.902653 -0.557302 -0.307730 9.518565 4.501955 -0.474671 5.726713 -7.304879 -1.605568 -16.568060 -5.963818 0.021791 -3.266360 5.885406 5.194863 -62.625328 40.873817 -14.720798 -0.113395 -0.198158 -30.854233 -25.702560 -2.148252 8.406248 -10.906921 2.546768 -3.842081 70.404121 36.477974 17.989332 -10.882683 -9.565749 44.182747 9.764364 -5.428564 -3.053741 7.516203 -42.642986 -0.787661 -5.525190 58.563282 11.260231 -30.424152 -31.430750 -0.195874 0.000000 0.000000 0.000000 -5.966177 -26.844620 -11.785845 1.170949 37.493050 -11.018423 16.860514 -41.738594 15.853278 0.000000 0.000000 0.000000 
-0.949440 89.876343 40.331585 -0.695670 16.525820 0.470591 -1.901347 -0.635025 -0.007517 9.292696 4.578416 -0.385723 5.647506 -7.259325 -1.823778 -16.350088 -5.859837 -0.209259 -2.824426 6.960045 5.630502 -62.029400 41.619606 -17.192368 -0.193991 -0.287467 -26.415621 -25.993776 -1.694757 5.903836 -10.907680 2.600190 -3.895127 70.354813 36.636833 18.062105 -10.940533 -9.780655 44.659569 9.835485 -5.582364 -3.189649 7.307301 -42.685387 -0.967446 -5.125918 56.973114 10.725231 -31.981325 -31.214746 -0.271976 0.000000 0.000000 0.000000 -5.970751 -25.669765 -11.782566 1.298357 35.636112 -11.338179 17.179234 -41.483368 16.245750 0.000000 0.000000 0.000000 
-0.833007 90.040985 41.226109 -0.695546 16.380762 0.621344 -1.906328 -0.712700 0.251349 9.070806 4.660957 -0.282129 5.564896 -7.202767 -2.033999 -16.124081 -5.751825 -0.432309 -2.427132 8.035958 6.079264 -61.316837 42.293457 -19.677198 -0.275302 -0.378655 -22.205643 -26.278582 -1.244647 3.483798 -10.910630 2.656068 -3.944706 70.309395 36.790070 18.129297 -10.991532 -9.984346 45.111607 9.926309 -5.730646 -3.326393 7.098343 -42.602203 -1.143745 -4.682762 55.575478 10.169481 -32.853649 -30.924572 -0.449333 0.000000 0.000000 0.000000 -5.976215 -24.517096 -11.795883 1.393007 33.830441 -11.641480 17.498304 -41.203144 16.642145 0.000000 0.000000 0.000000 
-0.707341 90.180695 42.128056 -0.696374 16.227190 0.767460 -1.917057 -0.789730 0.500655 8.854986 4.744266 -0.196107 5.480367 -7.136959 -2.235254 -15.891123 -5.639550 -0.646303 -2.052781 9.135376 6.535467 -60.520805 42.873398 -22.174799 -0.339635 -0.471738 -18.263947 -26.558735 -0.804145 1.181786 -10.915340 2.712347 -3.990111 70.268051 36.937637 18.191422 -11.034612 -10.175128 45.536873 10.034938 -5.872374 -3.462140 6.877219 -42.537365 -1.315682 -4.311220 54.103146 9.692525 -33.639652 -30.526089 -0.440899 0.000000 0.000000 0.000000 -5.983812 -23.402140 -11.827591 1.453490 32.109348 -11.945033 17.844063 -40.905937 17.071442 0.000000 0.000000 0.000000 
-0.573092 90.292427 43.035778 -0.698118 16.066240 0.906653 -1.933951 -0.865533 0.728832 8.645965 4.829760 -0.117343 5.393816 -7.063201 -2.426557 -15.651834 -5.523406 -0.850293 -1.714850 10.219390 6.986359 -59.680244 43.373581 -24.594452 -0.357793 -0.578740 -14.676104 -26.845119 -0.398796 -0.942921 -10.921895 2.767391 -4.030010 70.230415 37.078926 18.248930 -11.068953 -10.351629 45.934261 10.159335 -6.006689 -3.595820 6.602944 -42.320339 -1.498531 -4.128385 53.149719 9.388106 -31.242456 -29.806273 0.698577 0.000000 0.000000 0.000000 -5.995014 -22.340807 -11.878838 1.478819 30.506718 -12.266914 18.244341 -40.601173 17.564148 0.000000 0.000000 0.000000 
-0.431068 90.373680 43.947647 -0.700675 15.899339 1.038975 -1.957197 -0.939129 0.935178 8.445230 4.916616 -0.046100 5.304916 -6.983056 -2.606957 -15.406853 -5.404140 -1.043539 -1.421511 11.252217 7.418697 -58.838623 43.807987 -26.855440 -0.303521 -0.704426 -11.494865 -27.146702 -0.045175 -2.853225 -10.930960 2.819726 -4.063572 70.196793 37.213520 18.302547 -11.093984 -10.512546 46.301868 10.297436 -6.132685 -3.725734 6.323799 -42.119587 -1.667829 -4.018817 52.273197 9.162519 -28.856701 -29.085300 1.809633 0.000000 0.000000 0.000000 -6.011445 -21.348972 -11.950085 1.468382 29.056137 -12.624868 18.726402 -40.299442 18.149918 0.000000 0.000000 0.000000 
-0.282017 90.422585 44.861713 -0.704210 15.727771 1.163371 -1.986651 -1.009241 1.118931 8.253407 5.003789 0.017687 5.213972 -6.898780 -2.775732 -15.157021 -5.281913 -1.225371 -1.175723 12.203281 7.819816 -58.039745 44.189632 -28.890882 -0.154450 -0.848174 -8.744143 -27.470728 0.248676 -4.531125 -10.942229 2.867798 -4.090395 70.167320 37.340466 18.352465 -11.108923 -10.656438 46.638603 10.446957 -6.249402 -3.850699 6.066254 -41.861282 -1.810617 -3.830977 51.429726 8.897985 -26.783415 -28.376835 2.610540 0.000000 0.000000 0.000000 -6.034708 -20.442053 -12.041266 1.421081 27.789680 -13.036424 19.317091 -40.010624 18.857887 0.000000 0.000000 0.000000 
